<?xml version="1.0" encoding="UTF-8"?>
<svg xmlns="http://www.w3.org/2000/svg"
     width="512" height="512" viewBox="0 0 512 512">
  <g fill="#FF9A1F">
    <rect x="133" y="150" width="57" height="52" rx="13" ry="13"/>
<rect x="117" y="216" width="86" height="63" rx="14" ry="14"/>
<rect x="95" y="297" width="124" height="78" rx="15" ry="15"/>
  </g>
  <path d="M 242 100
Q 229 100 229 113
L 229 403
Q 229 416 242 416
L 275 416
Q 287 416 287 403
L 287 304
L 373 411
Q 377 416 384 416
L 441 416
Q 451 416 444 407
L 330 267
L 448 109
Q 455 100 444 100
L 383 100
Q 377 100 373 106
L 287 232
L 287 113
Q 287 100 275 100
Z" fill="#FFFFFF"/>
</svg>
